<svg xmlns="http://www.w3.org/2000/svg" version="1.1" viewBox="-5.0 -10.0 110.0 135.0">
 <path d="m11.719 88.203 1.0547-6.7656c1.3828 0.34375 2.6328 1.0469 3.6484 2.0625s1.7188 2.2656 2.0625 3.6484zm15.633-2.4453-7.3047 1.1406c-0.39844-1.7109-1.2578-3.2578-2.5078-4.5156-1.25-1.25-2.7969-2.1094-4.5156-2.5078l1.1406-7.3047 3.125-3.125 13.188 13.188zm4.2344-4.2344-13.188-13.188 42.828-42.828 13.188 13.188zm43.93-43.93-13.188-13.188 4.1875-4.1875 13.188 13.188zm10.031-10.039-4.7344 4.7344-13.188-13.18 4.7344-4.7344c1.7578-1.7578 4.1016-2.7344 6.5938-2.7344s4.8281 0.96875 6.5938 2.7344c1.7578 1.7578 2.7344 4.1016 2.7344 6.5938 0 2.4844-0.96875 4.8281-2.7344 6.5859z"/>
 <path d="m80.805 86.797h-46.586c-0.42969 0-0.78125 0.35156-0.78125 0.78125s0.35156 0.78125 0.78125 0.78125h46.586c0.42969 0 0.78125-0.35156 0.78125-0.78125s-0.34375-0.78125-0.78125-0.78125z"/>
</svg>