<svg width="24" height="24" viewBox="0 0 24 24" fill="none" xmlns="http://www.w3.org/2000/svg">
<path d="M19.2584 21L13.0682 14.7C12.5769 15.1 12.0119 15.4167 11.3733 15.65C10.7346 15.8833 10.055 16 9.33444 16C7.54945 16 6.03875 15.3708 4.80235 14.1125C3.56595 12.8542 2.94775 11.3167 2.94775 9.5C2.94775 7.68333 3.56595 6.14583 4.80235 4.8875C6.03875 3.62917 7.54945 3 9.33444 3C11.1194 3 12.6301 3.62917 13.8665 4.8875C15.1029 6.14583 15.7211 7.68333 15.7211 9.5C15.7211 10.2333 15.6065 10.925 15.3772 11.575C15.148 12.225 14.8368 12.8 14.4438 13.3L20.634 19.6L19.2584 21ZM9.33444 14C10.5627 14 11.6066 13.5625 12.4664 12.6875C13.3261 11.8125 13.756 10.75 13.756 9.5C13.756 8.25 13.3261 7.1875 12.4664 6.3125C11.6066 5.4375 10.5627 5 9.33444 5C8.10623 5 7.06226 5.4375 6.20251 6.3125C5.34276 7.1875 4.91289 8.25 4.91289 9.5C4.91289 10.75 5.34276 11.8125 6.20251 12.6875C7.06226 13.5625 8.10623 14 9.33444 14Z" fill="#1D1B20"/>
</svg>
