<svg width="25" height="25" viewBox="0 0 25 25" fill="none" xmlns="http://www.w3.org/2000/svg">
<path d="M18.75 22.9167C17.8819 22.9167 17.1441 22.6129 16.5365 22.0052C15.9288 21.3976 15.625 20.6598 15.625 19.7917C15.625 19.6702 15.6337 19.5443 15.651 19.4141C15.6684 19.2839 15.6944 19.1667 15.7292 19.0625L8.38542 14.7917C8.09028 15.0521 7.76042 15.2561 7.39583 15.4037C7.03125 15.5513 6.64931 15.625 6.25 15.625C5.38194 15.625 4.6441 15.3212 4.03646 14.7136C3.42882 14.1059 3.125 13.3681 3.125 12.5C3.125 11.632 3.42882 10.8941 4.03646 10.2865C4.6441 9.67886 5.38194 9.37504 6.25 9.37504C6.64931 9.37504 7.03125 9.44883 7.39583 9.59639C7.76042 9.74396 8.09028 9.94796 8.38542 10.2084L15.7292 5.93754C15.6944 5.83337 15.6684 5.71619 15.651 5.58598C15.6337 5.45577 15.625 5.3299 15.625 5.20837C15.625 4.34032 15.9288 3.60247 16.5365 2.99483C17.1441 2.38719 17.8819 2.08337 18.75 2.08337C19.6181 2.08337 20.3559 2.38719 20.9635 2.99483C21.5712 3.60247 21.875 4.34032 21.875 5.20837C21.875 6.07643 21.5712 6.81428 20.9635 7.42192C20.3559 8.02955 19.6181 8.33337 18.75 8.33337C18.3507 8.33337 17.9688 8.25959 17.6042 8.11202C17.2396 7.96445 16.9097 7.76046 16.6146 7.50004L9.27083 11.7709C9.30556 11.875 9.3316 11.9922 9.34896 12.1224C9.36632 12.2526 9.375 12.3785 9.375 12.5C9.375 12.6216 9.36632 12.7474 9.34896 12.8776C9.3316 13.0079 9.30556 13.125 9.27083 13.2292L16.6146 17.5C16.9097 17.2396 17.2396 17.0356 17.6042 16.8881C17.9688 16.7405 18.3507 16.6667 18.75 16.6667C19.6181 16.6667 20.3559 16.9705 20.9635 17.5782C21.5712 18.1858 21.875 18.9237 21.875 19.7917C21.875 20.6598 21.5712 21.3976 20.9635 22.0052C20.3559 22.6129 19.6181 22.9167 18.75 22.9167ZM18.75 6.25004C19.0451 6.25004 19.2925 6.15021 19.4922 5.95056C19.6918 5.75091 19.7917 5.50351 19.7917 5.20837C19.7917 4.91324 19.6918 4.66584 19.4922 4.46619C19.2925 4.26653 19.0451 4.16671 18.75 4.16671C18.4549 4.16671 18.2075 4.26653 18.0078 4.46619C17.8082 4.66584 17.7083 4.91324 17.7083 5.20837C17.7083 5.50351 17.8082 5.75091 18.0078 5.95056C18.2075 6.15021 18.4549 6.25004 18.75 6.25004ZM6.25 13.5417C6.54514 13.5417 6.79253 13.4419 6.99219 13.2422C7.19184 13.0426 7.29167 12.7952 7.29167 12.5C7.29167 12.2049 7.19184 11.9575 6.99219 11.7579C6.79253 11.5582 6.54514 11.4584 6.25 11.4584C5.95486 11.4584 5.70747 11.5582 5.50781 11.7579C5.30816 11.9575 5.20833 12.2049 5.20833 12.5C5.20833 12.7952 5.30816 13.0426 5.50781 13.2422C5.70747 13.4419 5.95486 13.5417 6.25 13.5417ZM18.75 20.8334C19.0451 20.8334 19.2925 20.7335 19.4922 20.5339C19.6918 20.3342 19.7917 20.0868 19.7917 19.7917C19.7917 19.4966 19.6918 19.2492 19.4922 19.0495C19.2925 18.8499 19.0451 18.75 18.75 18.75C18.4549 18.75 18.2075 18.8499 18.0078 19.0495C17.8082 19.2492 17.7083 19.4966 17.7083 19.7917C17.7083 20.0868 17.8082 20.3342 18.0078 20.5339C18.2075 20.7335 18.4549 20.8334 18.75 20.8334Z" fill="#1D1B20"/>
</svg>
